<svg width="272" height="272" viewBox="0 0 272 272" fill="none" xmlns="http://www.w3.org/2000/svg">
<g clip-path="url(#clip0_102_32)">
<path d="M226.686 130.591L105.824 71.8831C100.627 69.3375 95.2176 74.959 97.9223 80.1032L126.03 133.242C126.505 134.095 126.75 135.057 126.741 136.034C126.731 137.01 126.468 137.967 125.977 138.811L97.9223 191.897C95.2176 197.041 100.627 202.662 105.824 200.117L226.686 141.409C227.706 140.92 228.566 140.153 229.169 139.196C229.771 138.239 230.091 137.131 230.091 136C230.091 134.869 229.771 133.761 229.169 132.804C228.566 131.847 227.706 131.08 226.686 130.591V130.591Z" stroke="white" stroke-width="12" stroke-linecap="round" stroke-linejoin="round"/>
</g>
<defs>
<clipPath id="clip0_102_32">
<rect width="192" height="192" fill="white" transform="translate(271.764 136) rotate(135)"/>
</clipPath>
</defs>
</svg>
